<svg width="162" height="105" viewBox="0 0 162 105" fill="none" xmlns="http://www.w3.org/2000/svg">
<path d="M151.125 27.1799C152.388 30.6505 151.735 34.6959 149.35 39.0902C146.965 43.4838 142.877 48.171 137.381 52.8683C126.392 62.2605 109.86 71.6217 90.3893 78.7049C70.9182 85.7881 52.2359 89.2368 37.7807 89.1008C30.5512 89.0327 24.4067 88.0681 19.7566 86.2335C15.1057 84.3986 12.0058 81.7185 10.7433 78.2479C9.48072 74.7774 10.134 70.7319 12.5189 66.3376C14.9033 61.944 18.9918 57.2568 24.4878 52.5595C35.4767 43.1674 52.0082 33.8061 71.4793 26.7229C90.9504 19.6397 109.633 16.191 124.088 16.3271C131.317 16.3951 137.462 17.3597 142.112 19.1943C146.763 21.0292 149.863 23.7093 151.125 27.1799Z" stroke="black"/>
<path d="M153.57 51.2867C153.658 55.1831 151.807 58.9868 148.282 62.5388C144.755 66.0921 139.584 69.3602 133.125 72.1631C120.209 77.7678 102.24 81.4711 82.285 81.9213C62.3297 82.3716 44.2123 79.4827 31.0569 74.4662C24.4779 71.9575 19.1644 68.926 15.4813 65.5354C11.7997 62.146 9.7786 58.4297 9.69068 54.5333C9.60277 50.637 11.4542 46.8333 14.9792 43.2813C18.5056 39.7279 23.6769 36.4599 30.1361 33.657C43.0518 28.0523 61.0204 24.349 80.9758 23.8987C100.931 23.4485 119.048 26.3374 132.204 31.3539C138.783 33.8626 144.096 36.894 147.78 40.2847C151.461 43.674 153.482 47.3904 153.57 51.2867Z" stroke="black"/>
</svg>
