<svg width="84" height="70" viewBox="0 0 84 70" fill="none" xmlns="http://www.w3.org/2000/svg">
<path d="M36.224 57.184C36.576 57.184 36.848 57.28 37.04 57.472C37.2427 57.664 37.344 57.9307 37.344 58.272C37.344 58.3573 37.3333 58.448 37.312 58.544C37.3013 58.6293 37.2853 58.704 37.264 58.768C37.1253 58.7467 36.9707 58.7307 36.8 58.72C36.6293 58.6987 36.4267 58.688 36.192 58.688C35.7333 58.688 35.2693 58.7307 34.8 58.816C34.3307 58.8907 33.8827 58.9547 33.456 59.008C33.2107 59.5733 32.9867 60.1227 32.784 60.656C32.5813 61.1787 32.4053 61.6587 32.256 62.096C32.1173 62.5333 32.0053 62.912 31.92 63.232C31.8453 63.552 31.8027 63.792 31.792 63.952C32.656 63.7707 33.5253 63.616 34.4 63.488C35.2853 63.36 36.2133 63.264 37.184 63.2C37.3013 63.3813 37.3973 63.5787 37.472 63.792C37.5573 64.0053 37.6 64.2347 37.6 64.48C37.6 64.544 37.6 64.6133 37.6 64.688C37.6 64.7627 37.5893 64.8373 37.568 64.912C37.2693 64.9013 36.9547 64.8907 36.624 64.88C36.2933 64.88 35.8613 64.88 35.328 64.88C34.976 64.88 34.64 64.8853 34.32 64.896C34.0107 64.9173 33.696 64.944 33.376 64.976C33.056 65.008 32.7147 65.0507 32.352 65.104C32 65.1573 31.6 65.2213 31.152 65.296C30.6613 65.104 30.1867 64.6347 29.728 63.888C29.9093 63.504 30.16 62.9227 30.48 62.144C30.8107 61.3547 31.2267 60.304 31.728 58.992C31.248 58.8427 30.9333 58.576 30.784 58.192C30.8373 58.1387 30.992 58.0747 31.248 58C31.504 57.9147 31.8187 57.8293 32.192 57.744C32.352 57.328 32.4853 56.9653 32.592 56.656C32.7093 56.3467 32.8107 56.0587 32.896 55.792C32.9813 55.5147 33.056 55.248 33.12 54.992C33.1947 54.7253 33.264 54.4373 33.328 54.128C32.9547 54.1067 32.6613 54.0053 32.448 53.824C32.2347 53.632 32.128 53.3867 32.128 53.088C32.128 53.0027 32.1387 52.9013 32.16 52.784C32.192 52.6667 32.224 52.5653 32.256 52.48C32.4693 52.512 32.672 52.5333 32.864 52.544C33.0667 52.5547 33.328 52.56 33.648 52.56C34.32 52.56 34.9493 52.544 35.536 52.512C36.1227 52.4693 36.6507 52.4267 37.12 52.384C37.6 52.3413 38.0107 52.304 38.352 52.272C38.6933 52.2293 38.9547 52.208 39.136 52.208C39.3813 52.208 39.6 52.336 39.792 52.592C39.984 52.848 40.128 53.2107 40.224 53.68C39.8933 53.648 39.6213 53.6267 39.408 53.616C39.2053 53.6053 39.024 53.6 38.864 53.6C38.2773 53.6 37.7387 53.632 37.248 53.696C36.768 53.7493 36.304 53.808 35.856 53.872C35.792 53.968 35.7173 54.0907 35.632 54.24C35.5573 54.3893 35.456 54.5973 35.328 54.864C35.2 55.1307 35.04 55.4667 34.848 55.872C34.6667 56.2773 34.4427 56.784 34.176 57.392C34.5813 57.328 34.96 57.28 35.312 57.248C35.6747 57.2053 35.9787 57.184 36.224 57.184ZM39.75 64.608C39.5793 64.5867 39.398 64.512 39.206 64.384C39.0247 64.2667 38.9073 64.1333 38.854 63.984C38.854 63.856 38.87 63.6907 38.902 63.488C38.9447 63.2853 38.9927 63.0827 39.046 62.88C39.0993 62.6667 39.1527 62.4693 39.206 62.288C39.2593 62.096 39.2967 61.952 39.318 61.856C39.446 61.856 39.606 61.888 39.798 61.952C40.0007 62.016 40.2033 62.1067 40.406 62.224C40.6193 62.3307 40.8167 62.4587 40.998 62.608C41.19 62.7467 41.334 62.8907 41.43 63.04C41.334 63.2533 41.2113 63.456 41.062 63.648C40.9127 63.84 40.7527 64.0053 40.582 64.144C40.422 64.2933 40.2673 64.4053 40.118 64.48C39.9687 64.5653 39.846 64.608 39.75 64.608ZM43.9454 65.216C43.4334 65.0667 43.076 64.9173 42.8734 64.768C42.6814 64.6187 42.5854 64.432 42.5854 64.208C42.5854 64.0373 42.6334 63.7973 42.7294 63.488C42.8254 63.1787 42.964 62.816 43.1454 62.4C43.3374 61.9733 43.5614 61.504 43.8174 60.992C44.084 60.48 44.3827 59.9307 44.7134 59.344C44.436 59.3333 44.1854 59.328 43.9614 59.328C43.748 59.3173 43.572 59.312 43.4334 59.312C43.4974 59.152 43.6787 59.0133 43.9774 58.896C44.276 58.7787 44.6707 58.6773 45.1614 58.592C45.5774 57.8987 46.02 57.2373 46.4894 56.608C46.9694 55.9787 47.4494 55.4027 47.9294 54.88C48.4094 54.3467 48.8894 53.8827 49.3694 53.488C49.8494 53.0827 50.308 52.7627 50.7454 52.528C50.756 52.4533 50.7614 52.3893 50.7614 52.336C50.772 52.2827 50.7774 52.2453 50.7774 52.224C50.9267 52.224 51.124 52.2613 51.3694 52.336C51.6254 52.4107 51.8707 52.5013 52.1054 52.608C52.3507 52.7147 52.564 52.8267 52.7454 52.944C52.9374 53.0507 53.044 53.1413 53.0654 53.216C52.7134 53.8347 52.3667 54.7627 52.0254 56C51.684 57.2267 51.4014 58.6987 51.1774 60.416C51.124 60.8427 51.076 61.328 51.0334 61.872C51.0014 62.416 50.9854 63.024 50.9854 63.696C50.9854 63.9307 50.9854 64.1707 50.9854 64.416C50.9854 64.6613 50.996 64.9173 51.0174 65.184C50.996 65.1947 50.9747 65.2 50.9534 65.2C50.932 65.2 50.8894 65.2 50.8254 65.2C50.676 65.2 50.5 65.1733 50.2974 65.12C50.1054 65.0773 49.9134 65.0187 49.7214 64.944C49.54 64.88 49.38 64.8053 49.2414 64.72C49.1134 64.6347 49.0334 64.56 49.0014 64.496C48.9907 64.3573 48.9854 64.2187 48.9854 64.08C48.9854 63.952 48.9854 63.8133 48.9854 63.664C48.9854 63.0027 49.0067 62.3307 49.0494 61.648C49.1027 60.9653 49.188 60.2613 49.3054 59.536C49.156 59.5253 48.9587 59.5147 48.7134 59.504C48.468 59.4827 48.1907 59.4667 47.8814 59.456C47.5827 59.4453 47.2574 59.4347 46.9054 59.424C46.564 59.4027 46.228 59.3867 45.8974 59.376C45.6414 59.856 45.4014 60.336 45.1774 60.816C44.9534 61.2853 44.7614 61.76 44.6014 62.24C44.42 62.752 44.2707 63.264 44.1534 63.776C44.0467 64.288 43.9774 64.768 43.9454 65.216ZM50.1214 55.6C50.164 55.4507 50.212 55.248 50.2654 54.992C50.3294 54.7253 50.388 54.448 50.4414 54.16C50.1747 54.256 49.876 54.432 49.5454 54.688C49.2254 54.944 48.8894 55.264 48.5374 55.648C48.196 56.0213 47.844 56.448 47.4814 56.928C47.1294 57.3973 46.788 57.8987 46.4574 58.432C47.3534 58.3573 48.372 58.3093 49.5134 58.288C49.5987 57.84 49.6894 57.3973 49.7854 56.96C49.892 56.512 50.004 56.0587 50.1214 55.6ZM53.875 64.608C53.7043 64.5867 53.523 64.512 53.331 64.384C53.1497 64.2667 53.0323 64.1333 52.979 63.984C52.979 63.856 52.995 63.6907 53.027 63.488C53.0697 63.2853 53.1177 63.0827 53.171 62.88C53.2243 62.6667 53.2777 62.4693 53.331 62.288C53.3843 62.096 53.4217 61.952 53.443 61.856C53.571 61.856 53.731 61.888 53.923 61.952C54.1257 62.016 54.3283 62.1067 54.531 62.224C54.7443 62.3307 54.9417 62.4587 55.123 62.608C55.315 62.7467 55.459 62.8907 55.555 63.04C55.459 63.2533 55.3363 63.456 55.187 63.648C55.0377 63.84 54.8777 64.0053 54.707 64.144C54.547 64.2933 54.3923 64.4053 54.243 64.48C54.0937 64.5653 53.971 64.608 53.875 64.608Z" fill="black"/>
<path d="M83.504 53.278C83.504 57.6963 79.9223 61.278 75.504 61.278H68.02C66.3632 61.278 65.02 59.9349 65.02 58.278V58.278C65.02 56.6212 66.3632 55.278 68.02 55.278H71.262C74.7094 55.278 77.504 52.4834 77.504 49.036V14C77.504 9.58171 73.9223 6 69.504 6H14C9.58173 6 6 9.58172 6 14V48.814C6 52.384 8.89403 55.278 12.464 55.278H15.928C17.5849 55.278 18.928 56.6212 18.928 58.278V58.278C18.928 59.9349 17.5849 61.278 15.928 61.278H8C3.58173 61.278 0 57.6963 0 53.278V7.99999C0 3.58171 3.58172 0 8 0H75.504C79.9223 0 83.504 3.58172 83.504 8V53.278Z" fill="black"/>
<path d="M26.4212 41.4976C25.2491 42.6691 23.3493 42.6685 22.178 41.4963L17.0755 36.3898C13.9521 33.2641 13.9545 28.1981 17.0807 25.0752L22.1829 19.9787C23.3549 18.8079 25.254 18.8089 26.4249 19.9808V19.9808C27.5957 21.1528 27.5949 23.0521 26.4229 24.223L24.2257 26.4181C21.84 28.8016 21.8385 32.6678 24.2222 35.0532L26.4224 37.2549C27.5936 38.4269 27.593 40.3263 26.4212 41.4976V41.4976Z" fill="black"/>
<path d="M59.4919 41.4967C58.3205 42.6687 56.4208 42.6692 55.2489 41.4978V41.4978C54.077 40.3265 54.0765 38.4269 55.2479 37.255L57.4489 35.0529C59.833 32.6677 59.8317 28.8014 57.4459 26.4179L55.249 24.223C54.077 23.0521 54.0761 21.1528 55.247 19.9808V19.9808C56.4178 18.8089 58.317 18.8079 59.489 19.9787L64.5907 25.0748C67.7171 28.1978 67.7193 33.2641 64.5955 36.3898L59.4919 41.4967Z" fill="black"/>
<path d="M41.7473 41.1388C41.3648 42.7509 39.7479 43.7478 38.1358 43.3653V43.3653C36.5237 42.9829 35.5268 41.366 35.9093 39.7539L40.5143 20.3419C40.8968 18.7298 42.5137 17.7329 44.1258 18.1154V18.1154C45.7379 18.4978 46.7348 20.1147 46.3523 21.7268L41.7473 41.1388Z" fill="black"/>
</svg>
